<svg width="600" height="600" xml:space="preserve" xmlns="http://www.w3.org/2000/svg"><g stroke="#000" stroke-width=".5"><path d="m177 293 11 51 81 12-59-55zM331 356l59-55 33-8-11 51zM252 535l48-24 48 24-48 30z"/><path d="M242 133 127 11l93 160Z" fill="#fff"/><path d="m127 11 7 204 86-44z" fill="#4d4d4d"/><path d="M134 215 54 371l95-100Z" fill="#fff"/><path d="m134 215 15 56 71-100zM220 171l-26 114-45-14ZM269 356l-75-71 26-114z" fill="#fff"/><path d="m70 423 79-152-31 139Z" fill="#4d4d4d"/><path d="M149 271 54 371" fill="#666"/><path d="M96 371H54l95-100z" fill="#4d4d4d"/><path d="m177 293 17-8-45-14z" fill="#fff"/><path d="m177 293 17-8 16 16z" fill="#fff"/><path d="m149 271-31 139 97 61z" fill="#4d4d4d"/><path d="m149 271 66 200-38-178zM215 471l17 79 20-15z" fill="#b3b3b3"/><path d="m220 171 80-38h-58zM252 535l48-24-31-155zM269 356l31-223-80 38z" fill="#fff"/><path d="m252 535 17-179-81-12Z" fill="#b3b3b3"/><path d="m188 344 27 127 37 64zM232 550l37 35-17-50zM252 535l48 30v23z" fill="#b3b3b3"/><path d="m252 535 17 50 31 3z" fill="#b3b3b3"/><path d="M358 133 473 11l-93 160Z" fill="#fff"/><path d="m473 11-7 204-86-44Z" fill="#4d4d4d"/><path d="m466 215 80 156-95-100Z" fill="#fff"/><path d="m466 215-15 56-71-100z" fill="#fff"/><path d="m380 171 26 114 45-14z" fill="#fff"/><path d="m331 356 75-71-26-114z" fill="#fff"/><path d="m530 423-79-152 31 139Z" fill="#4d4d4d"/><path d="m451 271 95 100" fill="#666"/><path d="M504 371h42l-95-100Z" fill="#4d4d4d"/><path d="m423 293-17-8 45-14z" fill="#fff"/><path d="m423 293-17-8-16 16z" fill="#fff"/><path d="m451 271 31 139-97 61z" fill="#4d4d4d"/><path d="m451 271-66 200 38-178zM385 471l-17 79-20-15Z" fill="#b3b3b3"/><path d="m380 171-80-38h58zM348 535l-48-24 31-155z" fill="#fff"/><path d="m331 356-31-223 80 38z" fill="#fff"/><path d="m348 535-17-179 81-12ZM412 344l-27 127-37 64ZM368 550l-37 35 17-50zM348 535l-48 30v23z" fill="#b3b3b3"/><path d="m348 535-17 50-31 3z" fill="#b3b3b3"/><path d="m300 133-31 223 31 29z" fill="#fff"/><path d="m269 356 31 155V385ZM300 133l31 223-31 29z" fill="#fff"/><path d="m331 356-31 155V385Z" fill="#fff"/></g></svg>