<?xml version="1.0" encoding="UTF-8"?>
<svg id="Capa_1" data-name="Capa 1" xmlns="http://www.w3.org/2000/svg" viewBox="0 0 538.17 600.27">
  <polygon points="269.09 600.27 0 465.73 0 134.54 269.09 269.09 269.09 600.27" style="fill: #cecece;"/>
  <polygon points="269.09 600.27 538.17 465.73 538.17 134.54 269.09 269.09 269.09 600.27"/>
  <polygon points="0 134.54 258.74 0 538.17 134.54 269.09 269.09 0 134.54" style="fill: #878787;"/>
  <path d="M352.68,322.06c13.83-23.31,31.97-41.47,50.79-50.9l.04,.13c13.94-6.98,27.61-8.82,39.46-5.33,11.85,3.49,21.42,12.18,27.63,25.09,6.21,12.91,8.82,29.53,7.52,47.98-1.29,18.46-6.44,38.03-14.84,56.49-8.41,18.47-19.75,35.12-32.76,48.06-13.01,12.94-27.15,21.68-40.85,25.22-13.69,3.54-26.4,1.75-36.69-5.19-10.28-6.92-17.74-18.71-21.53-34.03l28.71,.89c1.05,6.08,3.97,10.49,8.2,12.37,4.23,1.88,9.46,1.11,14.69-2.17,5.22-3.29,10.07-8.84,13.6-15.6,3.53-6.75,5.49-14.23,5.5-20.98v-1.29l25.46-36.04,.59-.3c5.58-2.8,11.05-7.65,15.7-13.96s8.26-13.79,10.41-21.48c2.14-7.69,2.7-15.26,1.61-21.75-1.09-6.49-3.78-11.6-7.73-14.7-3.96-3.1-8.99-4.03-14.46-2.69-5.49,1.34-11.16,4.9-16.33,10.23-5.16,5.32-9.58,12.18-12.68,19.7-3.1,7.51-4.76,15.35-4.76,22.53v.38l-17.86,42.13-1.19,.59c-4.25,2.13-8.42,5.86-11.93,10.71l-40.15-1.24c1.5-24.84,10.02-51.57,23.86-74.86h0Zm23.09,108.84l-9.21-.28c1.34,2.91,3.46,4.85,6.1,5.58,2.64,.73,5.69,.24,8.79-1.44,3.09-1.67,6.08-4.45,8.61-8,2.53-3.54,4.49-7.69,5.64-11.96,1.15-4.25,1.44-8.44,.82-12.02-.61-3.58-2.08-6.43-4.25-8.17-2.16-1.75-4.92-2.33-7.95-1.67-3.02,.66-6.16,2.53-9.06,5.39l9.51,.31c2.79,.21,4.98,2.05,6.11,5.12s1.1,7.16-.07,11.36c-1.18,4.21-3.4,8.21-6.21,11.15-2.81,2.94-5.97,4.6-8.83,4.61v.02h0Zm68.08-121.92c2.06,2.94,3.17,7.06,3.17,11.85,0,6.41-2,13.53-5.53,19.82-3.53,6.29-8.31,11.22-13.3,13.73-3.72,1.86-7.37,2.26-10.46,1.16-3.1-1.1-5.51-3.67-6.93-7.38s-1.79-8.37-1.07-13.42c.72-5.05,2.53-10.26,5.16-14.94,2.63-4.7,5.99-8.67,9.64-11.43,3.66-2.76,7.44-4.16,10.88-4.06,3.44,.11,6.38,1.74,8.44,4.69v-.02Zm-27.4,17.03c-1.55,3.77-2.38,7.68-2.37,11.28,0,4.81,1.49,8.67,4.15,10.74s6.25,2.18,9.99,.31c2.8-1.4,5.53-3.83,7.86-6.99s4.14-6.9,5.21-10.75c1.07-3.86,1.35-7.64,.81-10.89-.54-3.25-1.89-5.81-3.87-7.36s-4.5-2.01-7.25-1.34c-2.74,.67-5.58,2.46-8.17,5.13s-4.79,6.1-6.35,9.87h0Z" style="fill: #fff; fill-rule: evenodd;"/>
</svg>