<svg width="600" height="600" xml:space="preserve" xmlns="http://www.w3.org/2000/svg"><g stroke="#000" stroke-width=".5"><path d="m177 293 11 51 81 12-59-55zm154 63 59-55 33-8-11 51zm-79 179 48-24 48 24-48 30z"/><path d="M242 133 127 11l93 160Z" fill="#666"/><path d="m127 11 7 204 86-44z" fill="#333"/><path d="M134 215 54 371l95-100Z" fill="#666"/><path d="m134 215 15 56 71-100zm86-44-26 114-45-14Zm49 185-75-71 26-114z" fill="#666"/><path d="m70 423 79-152-31 139Z" fill="#333"/><path d="M149 271 54 371" fill="#666"/><path d="M96 371H54l95-100z" fill="#333"/><path d="m177 293 17-8-45-14z" fill="#666"/><path d="m177 293 17-8 16 16z" fill="#666"/><path d="m149 271-31 139 97 61z" fill="#333"/><path d="m149 271 66 200-38-178zm66 200 17 79 20-15z" fill="#4d4d4d"/><path d="m220 171 80-38h-58zm32 364 48-24-31-155zm17-179 31-223-80 38z" fill="#666"/><path d="m252 535 17-179-81-12Z" fill="#4d4d4d"/><path d="m188 344 27 127 37 64zm44 206 37 35-17-50zm20-15 48 30v23z" fill="#4d4d4d"/><path d="m252 535 17 50 31 3z" fill="#4d4d4d"/><path d="M358 133 473 11l-93 160Z" fill="#666"/><path d="m473 11-7 204-86-44Z" fill="#333"/><path d="m466 215 80 156-95-100Z" fill="#666"/><path d="m466 215-15 56-71-100z" fill="#666"/><path d="m380 171 26 114 45-14z" fill="#666"/><path d="m331 356 75-71-26-114z" fill="#666"/><path d="m530 423-79-152 31 139Z" fill="#333"/><path d="m451 271 95 100" fill="#666"/><path d="M504 371h42l-95-100Z" fill="#333"/><path d="m423 293-17-8 45-14z" fill="#666"/><path d="m423 293-17-8-16 16z" fill="#666"/><path d="m451 271 31 139-97 61z" fill="#333"/><path d="m451 271-66 200 38-178zm-66 200-17 79-20-15Z" fill="#4d4d4d"/><path d="m380 171-80-38h58zm-32 364-48-24 31-155z" fill="#666"/><path d="m331 356-31-223 80 38z" fill="#666"/><path d="m348 535-17-179 81-12Zm64-191-27 127-37 64Zm-44 206-37 35 17-50zm-20-15-48 30v23z" fill="#4d4d4d"/><path d="m348 535-17 50-31 3z" fill="#4d4d4d"/><path d="m300 133-31 223 31 29z" fill="#666"/><path d="m269 356 31 155V385Zm31-223 31 223-31 29z" fill="#666"/><path d="m331 356-31 155V385Z" fill="#666"/></g></svg>